<?xml version="1.0" standalone="no"?>
<!DOCTYPE svg PUBLIC "-//W3C//DTD SVG 20010904//EN"
 "http://www.w3.org/TR/2001/REC-SVG-20010904/DTD/svg10.dtd">
<svg version="1.0" xmlns="http://www.w3.org/2000/svg"
 width="260.000000pt" height="280.000000pt" viewBox="0 0 260.000000 280.000000"
 preserveAspectRatio="xMidYMid meet">

<g transform="translate(0.000000,280.000000) scale(0.100000,-0.100000)"
fill="#000000" stroke="none">
<path d="M1409 1893 l-406 -408 -72 -213 c-40 -118 -71 -215 -69 -216 1 -1 98
31 214 71 l210 74 407 407 407 407 -143 143 -142 142 -406 -407z m504 219 c48
-48 87 -92 87 -97 0 -6 -33 -43 -73 -83 l-72 -72 -95 95 -95 95 75 75 c41 41
77 75 80 75 3 0 45 -39 93 -88z m-195 -205 l92 -92 -270 -270 -270 -270 -95
95 -95 95 267 267 c147 148 270 268 273 268 3 0 47 -42 98 -93z m-588 -582
c41 -41 72 -77 69 -80 -11 -11 -229 -84 -229 -77 -1 14 75 232 80 232 3 0 39
-34 80 -75z"/>
<path d="M558 2014 c-59 -31 -58 -19 -58 -654 l0 -580 34 -38 34 -37 579 -3
c535 -2 581 -1 613 15 67 34 70 53 68 368 l-3 280 -32 3 -33 3 0 -284 c0 -262
-1 -285 -18 -300 -17 -15 -72 -17 -584 -17 -514 0 -567 2 -579 17 -11 13 -15
119 -17 573 -2 538 -2 558 17 581 l19 24 281 3 281 3 0 29 0 30 -287 0 c-235
-1 -293 -4 -315 -16z"/>
</g>
</svg>
