<?xml version="1.0" standalone="no"?>
<!DOCTYPE svg PUBLIC "-//W3C//DTD SVG 20010904//EN"
 "http://www.w3.org/TR/2001/REC-SVG-20010904/DTD/svg10.dtd">
<svg version="1.0" xmlns="http://www.w3.org/2000/svg"
 width="251.000000pt" height="201.000000pt" viewBox="0 0 251.000000 201.000000"
 preserveAspectRatio="xMidYMid meet">

<g transform="translate(0.000000,201.000000) scale(0.100000,-0.100000)"
fill="#000000" stroke="none">
<path d="M1169 1817 c-142 -40 -264 -181 -298 -345 -15 -70 -14 -113 4 -196
19 -89 55 -165 144 -305 39 -61 71 -114 71 -117 0 -3 -24 -46 -54 -97 -69
-117 -166 -308 -166 -326 0 -18 152 -253 159 -245 3 3 53 91 111 196 58 105
109 191 115 191 12 0 37 -42 139 -233 43 -80 81 -148 85 -153 9 -9 161 216
161 238 0 20 -88 195 -161 321 -33 55 -59 103 -59 107 0 3 31 54 69 114 91
144 119 200 142 291 31 122 22 214 -32 329 -83 176 -268 276 -430 230z m410
-254 c56 -112 54 -257 -4 -388 -12 -27 -98 -174 -192 -325 -94 -151 -210 -347
-258 -435 -48 -88 -91 -164 -95 -169 -8 -8 -130 164 -130 184 0 16 102 215
161 316 29 49 120 193 202 319 82 127 164 260 183 297 40 80 84 206 84 242 0
42 14 30 49 -41z m-164 10 c55 -28 60 -33 59 -61 -1 -17 -20 -68 -42 -114 -40
-84 -151 -260 -171 -272 -15 -10 -105 124 -167 249 -75 154 -76 158 -22 186
76 39 119 49 203 46 66 -3 91 -9 140 -34z m-374 -169 c18 -39 19 -48 7 -62 -8
-9 -38 -46 -68 -81 l-54 -63 -12 33 c-23 62 -17 81 42 152 32 37 59 67 61 67
2 0 13 -21 24 -46z m483 -792 l24 -48 -70 -84 c-39 -47 -72 -86 -73 -88 -7 -8
-57 89 -52 101 6 14 136 167 142 167 3 0 16 -22 29 -48z"/>
<path d="M1540 1363 c0 -5 9 -14 20 -21 11 -7 20 -8 20 -2 0 5 -9 14 -20 20
-11 6 -20 7 -20 3z"/>
<path d="M1520 1327 c0 -4 9 -16 20 -27 11 -11 20 -16 20 -12 0 5 -9 17 -20
27 -11 10 -20 15 -20 12z"/>
<path d="M1500 1247 c0 -10 8 -17 18 -17 9 0 13 4 7 8 -5 4 -13 11 -17 16 -5
5 -8 2 -8 -7z"/>
<path d="M1482 1215 c6 -14 15 -25 20 -25 5 0 1 11 -8 25 -9 14 -18 25 -20 25
-2 0 2 -11 8 -25z"/>
<path d="M1463 1180 c6 -16 13 -28 15 -26 6 6 -10 56 -18 56 -5 0 -3 -13 3
-30z"/>
<path d="M1431 1150 c-1 -18 16 -46 23 -40 2 3 -2 16 -9 30 -8 15 -14 19 -14
10z"/>
<path d="M1407 1123 c-2 -4 5 -17 16 -28 l20 -20 -13 25 c-16 32 -17 33 -23
23z"/>
<path d="M1381 1085 c0 -13 28 -50 33 -44 3 2 -4 15 -14 29 -11 14 -20 21 -19
15z"/>
<path d="M1370 1038 c0 -8 7 -21 15 -28 19 -16 19 -1 0 24 -12 16 -15 17 -15
4z"/>
<path d="M1297 945 c15 -30 29 -53 31 -51 6 6 -42 106 -50 106 -4 0 4 -25 19
-55z"/>
<path d="M1340 993 c0 -15 18 -35 27 -32 5 2 1 12 -9 22 -10 9 -18 14 -18 10z"/>
<path d="M1320 969 c0 -8 7 -24 15 -35 18 -24 19 -7 0 26 -9 16 -14 19 -15 9z"/>
<path d="M1281 904 c0 -11 3 -14 6 -6 3 7 2 16 -1 19 -3 4 -6 -2 -5 -13z"/>
<path d="M1248 883 c7 -3 16 -2 19 1 4 3 -2 6 -13 5 -11 0 -14 -3 -6 -6z"/>
<path d="M1291 849 c-1 -29 -22 -43 -40 -28 -6 5 -4 1 4 -8 14 -16 16 -16 31
-1 9 9 14 26 11 39 -4 23 -4 23 -6 -2z"/>
<path d="M1140 752 c0 -5 6 -17 14 -28 10 -13 11 -23 4 -31 -15 -18 -1 -63 20
-63 16 1 16 1 0 11 -10 5 -18 20 -18 32 1 20 2 21 14 5 26 -34 26 -18 1 32
-24 47 -35 60 -35 42z"/>
<path d="M1191 740 c0 -32 13 -50 29 -40 8 5 10 10 4 10 -6 0 -16 10 -22 23
-6 13 -11 16 -11 7z"/>
<path d="M1130 637 c0 -16 21 -47 33 -47 8 0 9 3 1 8 -6 4 -16 16 -22 27 -6
11 -12 16 -12 12z"/>
<path d="M1110 578 c0 -9 5 -20 11 -23 17 -11 18 -2 3 19 -12 17 -14 17 -14 4z"/>
<path d="M1092 535 c6 -14 15 -25 20 -25 5 0 1 11 -8 25 -9 14 -18 25 -20 25
-2 0 2 -11 8 -25z"/>
<path d="M1073 501 c6 -17 14 -28 19 -25 4 3 1 16 -8 30 -21 32 -25 30 -11 -5z"/>
<path d="M1050 484 c0 -6 7 -19 16 -30 14 -18 14 -18 3 6 -14 31 -19 36 -19
24z"/>
<path d="M984 462 c3 -6 18 -13 33 -17 15 -3 31 -12 35 -18 6 -9 8 -9 8 -1 0
6 -6 16 -12 21 -18 14 -71 26 -64 15z"/>
<path d="M998 378 c6 -6 18 -8 28 -6 14 3 12 5 -9 10 -19 3 -25 2 -19 -4z"/>
</g>
</svg>
