<?xml version="1.0" standalone="no"?>
<!DOCTYPE svg PUBLIC "-//W3C//DTD SVG 20010904//EN"
 "http://www.w3.org/TR/2001/REC-SVG-20010904/DTD/svg10.dtd">
<svg version="1.0" xmlns="http://www.w3.org/2000/svg"
 width="481.000000pt" height="519.000000pt" viewBox="0 0 481.000000 519.000000"
 preserveAspectRatio="xMidYMid meet">

<g transform="translate(0.000000,519.000000) scale(0.100000,-0.100000)"
fill="#000000" stroke="none">
<path d="M2195 4320 c-66 -14 -93 -27 -140 -71 -76 -70 -85 -110 -85 -372 0
-248 8 -301 60 -383 49 -80 60 -108 53 -148 l-6 -36 -121 1 c-174 0 -272 -33
-377 -129 -69 -63 -116 -142 -140 -234 -16 -61 -19 -108 -19 -310 l0 -238
-249 0 -248 0 -26 -25 c-39 -39 -40 -71 -5 -147 l31 -68 151 0 c159 0 176 -4
176 -45 0 -40 -18 -45 -152 -45 -70 0 -128 -3 -128 -6 0 -3 25 -57 56 -120
l55 -114 135 0 c130 0 135 -1 143 -22 5 -13 34 -126 65 -253 72 -288 73 -293
97 -300 28 -9 56 3 62 26 4 16 -26 168 -49 242 -4 14 1 17 33 17 46 0 63 14
63 50 0 32 -32 50 -89 50 l-39 0 -21 87 c-13 50 -18 90 -13 95 5 5 132 8 285
6 153 -2 277 -1 277 2 0 3 -8 25 -17 50 -12 35 -17 97 -21 282 l-4 238 -237 2
-236 3 -3 185 c-1 102 2 220 7 263 17 149 102 267 234 328 65 30 83 33 182 37
l110 4 19 -33 c11 -19 47 -77 81 -129 34 -52 76 -118 93 -146 l32 -51 48 10
c26 6 49 12 51 13 2 2 -21 40 -51 86 -31 46 -80 122 -111 170 l-56 87 16 49
16 50 56 -27 c50 -23 68 -26 166 -26 98 0 116 3 166 26 l56 27 16 -50 16 -49
-56 -87 c-31 -48 -80 -124 -111 -170 -30 -46 -53 -84 -51 -86 2 -1 25 -7 51
-13 l48 -10 32 51 c17 28 59 94 93 146 34 52 70 110 81 129 l19 33 110 -4 c99
-4 117 -7 182 -37 87 -40 155 -108 199 -196 l29 -60 3 -262 3 -263 -241 0
-240 0 0 -242 c-1 -186 -4 -252 -15 -283 -8 -22 -15 -42 -15 -45 0 -3 124 -4
277 -2 153 2 280 -1 285 -6 5 -5 0 -45 -13 -95 l-21 -87 -39 0 c-77 0 -113
-35 -82 -79 10 -15 25 -21 54 -21 34 0 39 -3 35 -17 -3 -10 -17 -65 -31 -122
-22 -95 -23 -107 -10 -128 17 -26 47 -30 67 -9 8 8 43 128 77 267 35 140 67
264 72 277 9 23 12 23 124 21 99 -2 117 0 135 16 11 10 20 22 20 27 0 4 23 48
50 98 28 50 50 92 50 95 0 3 -55 5 -123 5 -129 0 -147 5 -147 45 0 41 17 45
171 45 l148 0 29 53 c44 77 46 121 6 161 l-27 26 -248 0 -249 0 0 238 c0 202
-3 249 -19 310 -24 92 -71 171 -140 234 -105 96 -209 131 -382 130 l-117 -1
-5 36 c-7 39 4 67 53 147 52 82 60 135 60 383 0 200 -2 228 -21 277 -23 64
-94 134 -155 155 -46 16 -407 25 -469 11z"/>
<path d="M1343 4018 c-5 -7 -17 -34 -27 -60 l-17 -47 -60 -7 c-43 -5 -64 -12
-74 -26 -18 -26 -11 -44 37 -94 l39 -41 -11 -63 c-10 -55 -9 -64 6 -81 23 -26
40 -24 98 10 l49 29 49 -29 c88 -52 114 -35 103 66 l-7 65 41 46 c64 73 54
101 -39 118 -60 11 -63 12 -79 52 -9 23 -22 49 -30 58 -16 19 -64 21 -78 4z"/>
<path d="M3389 4014 c-8 -9 -21 -35 -30 -58 -16 -40 -19 -41 -79 -52 -93 -17
-103 -45 -39 -118 l41 -46 -7 -65 c-11 -101 15 -118 103 -66 l49 29 49 -29
c58 -34 75 -36 98 -10 15 17 16 26 6 81 l-11 63 40 41 c42 43 53 84 29 104 -7
5 -39 13 -70 16 -57 7 -57 7 -74 54 -10 26 -22 53 -27 60 -14 17 -62 15 -78
-4z"/>
<path d="M2327 2780 c-60 -15 -88 -34 -149 -97 -42 -44 -60 -74 -72 -113 -28
-96 -25 -100 83 -100 71 0 91 -10 91 -45 0 -37 -20 -45 -107 -45 l-83 0 0 -50
0 -50 83 0 c87 0 107 -8 107 -45 0 -37 -20 -45 -107 -45 l-83 0 0 -50 0 -50
83 0 c87 0 107 -8 107 -45 0 -37 -19 -45 -108 -45 l-85 0 7 -46 c9 -69 37
-124 89 -174 49 -47 119 -89 150 -90 16 0 17 -16 17 -192 0 -207 7 -240 48
-246 49 -7 52 6 52 217 0 108 4 201 8 206 4 6 27 17 52 25 69 22 173 129 194
200 9 29 16 64 16 77 0 22 -3 23 -83 23 -87 0 -107 8 -107 45 0 37 20 45 107
45 l83 0 0 50 0 50 -83 0 c-87 0 -107 8 -107 45 0 37 20 45 107 45 l83 0 0 50
0 50 -83 0 c-51 0 -88 5 -95 12 -17 17 -15 53 5 69 14 12 37 15 161 19 16 0
15 25 -4 90 -19 65 -107 163 -171 192 -50 22 -153 31 -206 18z"/>
</g>
</svg>
