<?xml version="1.0" standalone="no"?>
<!DOCTYPE svg PUBLIC "-//W3C//DTD SVG 20010904//EN"
 "http://www.w3.org/TR/2001/REC-SVG-20010904/DTD/svg10.dtd">
<svg version="1.0" xmlns="http://www.w3.org/2000/svg"
 width="400.000000pt" height="400.000000pt" viewBox="0 0 400.000000 400.000000"
 preserveAspectRatio="xMidYMid meet">

<g transform="translate(0.000000,400.000000) scale(0.100000,-0.100000)"
fill="#000000" stroke="none">
<path d="M1228 2902 c-60 -37 -58 -4 -58 -902 0 -901 -2 -867 59 -903 27 -16
86 -17 711 -17 l682 0 34 34 34 34 -2 474 -3 473 -25 0 -25 0 -5 -463 c-5
-444 -6 -464 -24 -478 -17 -12 -124 -14 -671 -14 -573 0 -653 2 -673 16 l-22
15 0 829 0 829 22 15 c20 14 101 16 679 16 597 0 657 1 663 16 17 44 21 44
-683 44 -609 -1 -668 -2 -693 -18z"/>
<path d="M2803 2853 c-18 -10 -166 -139 -330 -288 -163 -148 -345 -313 -402
-365 -58 -52 -155 -140 -216 -195 l-110 -100 -87 -175 c-48 -96 -87 -185 -87
-196 -1 -12 6 -25 16 -28 9 -4 102 23 211 61 l195 68 346 314 c190 173 426
386 524 474 196 177 212 201 185 267 -20 48 -115 150 -155 167 -42 17 -52 17
-90 -4z m127 -115 c35 -37 60 -72 60 -85 0 -13 -17 -38 -42 -62 l-43 -40 -28
27 c-16 15 -52 53 -80 86 l-51 58 42 39 c22 22 51 39 62 39 13 0 44 -24 80
-62z m-153 -151 c67 -76 71 -83 56 -99 -16 -17 -17 -17 -36 -1 -10 10 -46 48
-79 86 -50 56 -58 70 -48 82 7 8 18 15 24 14 6 0 43 -37 83 -82z m-89 -78 c39
-44 72 -83 71 -87 0 -4 -51 -52 -113 -107 -61 -55 -235 -211 -385 -347 -150
-137 -278 -248 -285 -247 -14 1 -141 145 -141 162 0 14 43 54 395 372 140 126
280 253 310 282 30 29 60 52 65 52 6 -1 43 -37 83 -80z m-839 -756 c33 -37 57
-71 53 -75 -4 -4 -41 -19 -82 -33 l-75 -26 -22 26 -23 26 37 74 c21 41 41 75
44 75 4 0 35 -30 68 -67z"/>
<path d="M1459 2614 c-9 -11 -10 -20 -2 -32 9 -15 49 -17 429 -17 l419 0 3 24
c2 13 -2 28 -10 32 -7 5 -196 9 -419 9 -359 0 -408 -2 -420 -16z"/>
<path d="M1459 2314 c-9 -11 -10 -20 -2 -32 9 -15 39 -17 251 -20 235 -2 241
-2 252 18 9 16 8 25 -1 36 -9 11 -55 14 -249 14 -205 0 -239 -2 -251 -16z"/>
<path d="M1460 2015 c-10 -12 -11 -21 -3 -33 8 -13 28 -18 89 -20 107 -4 126
2 122 36 l-3 27 -96 3 c-79 2 -98 0 -109 -13z"/>
<path d="M2222 1718 c-38 -38 6 -61 105 -55 82 5 104 17 87 45 -9 13 -29 18
-95 20 -57 2 -88 -1 -97 -10z"/>
<path d="M1454 1415 c-4 -8 -4 -22 0 -30 8 -23 937 -23 956 0 10 12 10 18 0
30 -11 13 -77 15 -482 15 -407 0 -469 -2 -474 -15z"/>
</g>
</svg>
